<svg width="35" height="42" viewBox="0 0 35 42" fill="none" xmlns="http://www.w3.org/2000/svg">
<path d="M34.9561 10.7044C34.9064 9.61036 34.9064 8.56603 34.9064 7.5217C34.9064 6.67628 34.2599 6.02979 33.4145 6.02979C27.1982 6.02979 22.4738 4.2395 18.5451 0.410274C17.9484 -0.136758 17.0532 -0.136758 16.4565 0.410274C12.5278 4.2395 7.80341 6.02979 1.58714 6.02979C0.741724 6.02979 0.0952312 6.67628 0.0952312 7.5217C0.0952312 8.56603 0.0952311 9.61036 0.0455009 10.7044C-0.15342 21.1478 -0.451802 35.4701 17.0035 41.4874L17.5008 41.5869L17.9981 41.4874C35.4037 35.4701 35.155 21.1975 34.9561 10.7044ZM16.3073 25.1759C16.0089 25.4246 15.6608 25.5738 15.2629 25.5738H15.2132C14.8154 25.5738 14.4175 25.3748 14.1689 25.0765L9.54397 19.9542L11.7818 17.965L15.4121 21.9932L23.4684 14.3347L25.5074 16.5229L16.3073 25.1759Z" fill="#616161"/>
</svg>
