<svg width="42" height="42" viewBox="0 0 42 42" fill="none" xmlns="http://www.w3.org/2000/svg">
<path d="M32.9612 2.67944H9.03883C4.0554 2.67944 0 6.82339 0 11.9157V21.0647C0 26.1571 4.0554 30.301 9.03883 30.301H24.1595L35.1517 39.3206V30.0228C39.1276 29.0103 42 25.3496 42 21.0647V11.9157C42 6.82339 37.9446 2.67944 32.9612 2.67944ZM9.672 20.4354C8.60177 20.4354 7.64811 20.2021 7.03037 19.8676L7.48157 18.045C7.9494 18.3296 8.91969 18.6641 9.67209 18.6641C10.4411 18.6641 10.759 18.3963 10.759 17.9784C10.759 17.5593 10.5078 17.3593 9.55551 17.0415C7.86617 16.4724 7.2138 15.5534 7.23043 14.5831C7.23043 13.0617 8.53526 11.9081 10.5579 11.9081C11.5114 11.9081 12.3651 12.1247 12.8662 12.376L12.415 14.1319C12.0471 13.9306 11.3448 13.6628 10.6424 13.6628C10.0233 13.6628 9.67209 13.914 9.67209 14.3319C9.67209 14.7164 9.98991 14.9176 10.9935 15.2688C12.5483 15.8033 13.2007 16.5903 13.2174 17.7939C13.2173 19.3152 12.0137 20.4354 9.672 20.4354ZM27.1126 20.2688H24.6376V15.8212C24.6376 14.633 24.2518 13.9473 23.4328 13.9473C22.8483 13.9473 22.4292 14.3484 22.2626 14.8342C22.1959 15.0175 22.1626 15.2854 22.1626 15.4866V20.2688H19.6876V15.6866C19.6876 14.6496 19.3197 13.9473 18.5161 13.9473C17.865 13.9473 17.4791 14.4497 17.3292 14.8676C17.2459 15.0676 17.2293 15.3021 17.2293 15.5033V20.2689H14.7543V14.6998C14.7543 13.6808 14.7209 12.8104 14.6876 12.0914H16.8281L16.9448 13.195H16.9947C17.3459 12.6772 18.065 11.9081 19.4697 11.9081C20.5233 11.9081 21.3591 12.4426 21.7102 13.295H21.7436C22.0448 12.8771 22.4127 12.5426 22.7972 12.3094C23.2497 12.0415 23.7507 11.9082 24.3532 11.9082C25.9246 11.9082 27.1128 13.0118 27.1128 15.4522V20.2688H27.1126ZM31.3065 20.4354C30.2362 20.4354 29.2826 20.2021 28.6648 19.8676L29.116 18.045C29.5839 18.3296 30.5541 18.6641 31.3065 18.6641C32.0756 18.6641 32.3935 18.3963 32.3935 17.9784C32.3935 17.5593 32.1423 17.3593 31.1899 17.0415C29.5005 16.4724 28.8482 15.5534 28.8648 14.5831C28.8648 13.0617 30.1696 11.9081 32.1922 11.9081C33.1458 11.9081 33.9982 12.1247 34.5006 12.376L34.0494 14.1319C33.6815 13.9306 32.9792 13.6628 32.2767 13.6628C31.6576 13.6628 31.3065 13.914 31.3065 14.3319C31.3065 14.7164 31.6243 14.9176 32.6279 15.2688C34.1827 15.8033 34.8351 16.5903 34.8518 17.7939C34.8518 19.3152 33.6482 20.4354 31.3065 20.4354Z" fill="#616161"/>
</svg>
