<svg width="18" height="18" viewBox="0 0 18 18" xmlns="http://www.w3.org/2000/svg"><path d="M12.5417 2.22367H5.45833C3.33333 2.22367 1.91667 3.64033 1.91667 5.76533V10.0153C1.91667 12.1403 3.33333 13.557 5.45833 13.557V15.0658C5.45833 15.6324 6.08875 15.9724 6.55625 15.6537L9.70833 13.557H12.5417C14.6667 13.557 16.0833 12.1403 16.0833 10.0153V5.76533C16.0833 3.64033 14.6667 2.22367 12.5417 2.22367ZM9 10.8441C8.7025 10.8441 8.46875 10.6033 8.46875 10.3128C8.46875 10.0224 8.7025 9.78158 9 9.78158C9.2975 9.78158 9.53125 10.0224 9.53125 10.3128C9.53125 10.6033 9.2975 10.8441 9 10.8441ZM9.8925 7.9045C9.61625 8.08867 9.53125 8.20908 9.53125 8.40742V8.55617C9.53125 8.84658 9.29042 9.08742 9 9.08742C8.70958 9.08742 8.46875 8.84658 8.46875 8.55617V8.40742C8.46875 7.58575 9.07083 7.182 9.2975 7.02617C9.55958 6.84908 9.64458 6.72867 9.64458 6.5445C9.64458 6.19033 9.35417 5.89992 9 5.89992C8.64583 5.89992 8.35542 6.19033 8.35542 6.5445C8.35542 6.83492 8.11458 7.07575 7.82417 7.07575C7.53375 7.07575 7.29292 6.83492 7.29292 6.5445C7.29292 5.60242 8.05792 4.83742 9 4.83742C9.94208 4.83742 10.7071 5.60242 10.7071 6.5445C10.7071 7.352 10.1121 7.75575 9.8925 7.9045Z"/></svg>