<svg width="18" height="18" viewBox="0 0 18 18" xmlns="http://www.w3.org/2000/svg"><path fill-rule="evenodd" clip-rule="evenodd" d="M9 3.91667C6.19421 3.91667 3.91667 6.19421 3.91667 9C3.91667 11.8058 6.19421 14.0833 9 14.0833C11.8058 14.0833 14.0833 11.8058 14.0833 9C14.0833 6.19421 11.8058 3.91667 9 3.91667ZM2.41667 9C2.41667 5.36579 5.36579 2.41667 9 2.41667C12.6342 2.41667 15.5833 5.36579 15.5833 9C15.5833 12.6342 12.6342 15.5833 9 15.5833C5.36579 15.5833 2.41667 12.6342 2.41667 9Z"/><path fill-rule="evenodd" clip-rule="evenodd" d="M8.78422 5.63078C9.19844 5.63078 9.53422 5.96656 9.53422 6.38078V8.77244C9.53422 8.79474 9.54702 8.87146 9.60343 8.97038C9.65987 9.06935 9.71939 9.11939 9.73824 9.13056L9.74023 9.13174L9.74023 9.13174L11.5486 10.2109C11.9043 10.4232 12.0205 10.8836 11.8083 11.2393C11.596 11.595 11.1356 11.7112 10.7799 11.499L8.97354 10.421C8.97312 10.4208 8.97271 10.4205 8.97229 10.4203C8.67675 10.2448 8.45086 9.97725 8.30043 9.71346C8.14975 9.44926 8.03422 9.11765 8.03422 8.77244V6.38078C8.03422 5.96656 8.37001 5.63078 8.78422 5.63078Z"/></svg>