<svg width="18" height="18" viewBox="0 0 18 18" xmlns="http://www.w3.org/2000/svg"><path fill-rule="evenodd" clip-rule="evenodd" d="M3.04159 4.06522C2.58038 4.49348 2.25 5.20545 2.25 6.375V11.625C2.25 12.7946 2.58038 13.5065 3.04159 13.9348C3.51285 14.3724 4.23997 14.625 5.25 14.625H12.75C13.76 14.625 14.4871 14.3724 14.9584 13.9348C15.4196 13.5065 15.75 12.7946 15.75 11.625V6.375C15.75 5.20545 15.4196 4.49348 14.9584 4.06522C14.4871 3.62762 13.76 3.375 12.75 3.375H5.25C4.23997 3.375 3.51285 3.62762 3.04159 4.06522ZM2.02091 2.96603C2.86215 2.18488 4.01003 1.875 5.25 1.875H12.75C13.99 1.875 15.1379 2.18488 15.9791 2.96603C16.8304 3.75652 17.25 4.91955 17.25 6.375V11.625C17.25 13.0805 16.8304 14.2435 15.9791 15.034C15.1379 15.8151 13.99 16.125 12.75 16.125H5.25C4.01003 16.125 2.86215 15.8151 2.02091 15.034C1.16962 14.2435 0.75 13.0805 0.75 11.625V6.375C0.75 4.91955 1.16962 3.75652 2.02091 2.96603Z"/><path fill-rule="evenodd" clip-rule="evenodd" d="M13.336 6.28193C13.5945 6.60558 13.5417 7.07751 13.2181 7.33602L10.8696 9.21176C9.82374 10.0444 8.16876 10.0444 7.12287 9.21176L7.12102 9.21029L4.78102 7.33528C4.45778 7.07627 4.40571 6.60426 4.66472 6.28102C4.92373 5.95778 5.39574 5.9057 5.71898 6.16471L8.05796 8.0389C8.5571 8.4355 9.43613 8.43537 9.93502 8.03851C9.93514 8.03842 9.93491 8.0386 9.93502 8.03851L12.2819 6.16398C12.6056 5.90548 13.0775 5.95829 13.336 6.28193Z"/></svg>