<svg width="18" height="18" viewBox="0 0 18 18" xmlns="http://www.w3.org/2000/svg"><path fill-rule="evenodd" clip-rule="evenodd" d="M4.20375 2.25C3.88062 2.25 3.53668 2.37843 3.16989 2.73949L3.16421 2.74508L3.15841 2.75055C2.83616 3.05456 2.61631 3.38355 2.47917 3.73209L2.47762 3.73605C2.3354 4.09159 2.26125 4.48388 2.26125 4.905C2.26125 5.56768 2.41391 6.28579 2.74202 7.06537C3.07634 7.85214 3.5411 8.65796 4.12883 9.47528C4.72724 10.297 5.39874 11.0843 6.14409 11.8372C6.89709 12.5827 7.68504 13.2548 8.51543 13.8613C9.32945 14.454 10.1428 14.9195 10.9477 15.2625C11.7349 15.5979 12.4524 15.75 13.0988 15.75C13.5285 15.75 13.9176 15.6707 14.2728 15.5227L14.2768 15.521C14.6191 15.3807 14.9342 15.1584 15.2355 14.8264C15.4006 14.6442 15.5253 14.4517 15.6231 14.2447C15.704 14.0733 15.7388 13.905 15.7388 13.7475C15.7388 13.6562 15.7215 13.5675 15.678 13.4554C15.6582 13.4142 15.6209 13.3625 15.5293 13.2991L15.522 13.2941L13.046 11.5361C12.8892 11.4299 12.7655 11.3629 12.6648 11.3217C12.5775 11.286 12.5238 11.28 12.4913 11.28C12.4576 11.28 12.4184 11.2857 12.3487 11.3281L12.3276 11.341L12.3057 11.3524C12.2251 11.3945 12.1063 11.4807 11.9491 11.6378L11.9456 11.6413L11.377 12.2024C11.1618 12.4166 10.8772 12.5475 10.5413 12.5475C10.4157 12.5475 10.26 12.5333 10.0904 12.4697L10.0742 12.4637L10.0583 12.4569C10.0217 12.4412 9.98795 12.4256 9.96813 12.4165C9.94379 12.4053 9.93928 12.4035 9.94014 12.4038L9.90313 12.389L9.86783 12.3703C9.54738 12.2007 9.17899 11.9388 8.76679 11.59L8.76583 11.5892C8.34883 11.2352 7.94443 10.8537 7.5334 10.4503L7.52835 10.4453L7.52339 10.4403C7.11998 10.0291 6.74925 9.6196 6.40412 9.22078L6.39867 9.21449C6.05541 8.80881 5.78577 8.44162 5.61533 8.12914L5.58335 8.07052L5.56397 8.01237C5.56299 8.00996 5.56057 8.00404 5.55584 7.99286C5.55505 7.99099 5.55418 7.98894 5.55324 7.98673C5.54395 7.96482 5.52768 7.92649 5.5115 7.88334L5.4965 7.84334L5.48614 7.8019C5.45883 7.69265 5.44125 7.57855 5.44125 7.4475C5.44125 7.14833 5.54429 6.8572 5.77463 6.62351L6.34579 6.0298L6.35092 6.02467C6.49694 5.87865 6.59271 5.75185 6.64833 5.65346L6.6543 5.6429L6.6606 5.63254C6.70139 5.56553 6.70875 5.51903 6.70875 5.49C6.70875 5.47325 6.70266 5.41722 6.66439 5.32794L6.65949 5.31651C6.61861 5.21658 6.55293 5.09549 6.4451 4.94573L6.44205 4.94149L4.69706 2.48194C4.64452 2.40604 4.58054 2.35455 4.49696 2.31597L4.48666 2.31122C4.40685 2.27291 4.30873 2.25 4.20375 2.25ZM2.12335 1.66488C2.71536 1.08441 3.41941 0.75 4.20375 0.75C4.51695 0.75 4.83688 0.816391 5.13066 0.956401C5.4338 1.09729 5.71179 1.3139 5.92765 1.62414L7.66399 4.07148C7.82408 4.29412 7.95197 4.51552 8.04558 4.74285C8.14102 4.9672 8.20875 5.22404 8.20875 5.49C8.20875 5.81676 8.11358 6.12649 7.94833 6.40183C7.81069 6.64258 7.62575 6.87043 7.41694 7.07996L6.99519 7.51836C7.10538 7.69562 7.28269 7.93676 7.54113 8.24239C7.86874 8.62088 8.21551 9.00361 8.58917 9.38471C8.98614 9.7742 9.36005 10.126 9.73633 10.4455C10.0445 10.7062 10.2885 10.8804 10.471 10.989L10.8903 10.5753C11.1016 10.3642 11.3348 10.1711 11.59 10.0341C11.8598 9.87427 12.1587 9.78 12.4913 9.78C12.7437 9.78 12.99 9.83403 13.2327 9.93334C13.4607 10.0266 13.6801 10.1534 13.8955 10.2998L13.9018 10.3041L16.3871 12.0686C16.6768 12.27 16.9096 12.5295 17.0552 12.8604L17.0604 12.8721L17.0651 12.884C17.1675 13.14 17.2388 13.4226 17.2388 13.7475C17.2388 14.13 17.1535 14.5167 16.9794 14.8853C16.8222 15.2183 16.6169 15.5358 16.347 15.8336C15.914 16.3109 15.4194 16.6734 14.8477 16.9081C14.3034 17.1346 13.7182 17.25 13.0988 17.25C12.2151 17.25 11.2976 17.0421 10.3598 16.6425C9.43978 16.2505 8.52821 15.7261 7.63231 15.0738L7.63137 15.0731C6.73796 14.4206 5.89199 13.6986 5.08599 12.9004L5.08084 12.8953C4.28272 12.0894 3.56052 11.2432 2.91493 10.3564L2.91239 10.353C2.27099 9.46126 1.74635 8.55804 1.36095 7.65073L1.36002 7.64854C0.968441 6.71855 0.76125 5.80201 0.76125 4.905C0.76125 4.30684 0.866854 3.72482 1.08411 3.18092C1.30611 2.61755 1.65406 2.10906 2.12335 1.66488Z"/></svg>