<svg width="0" height="0" class="hidden">
  <symbol xmlns="http://www.w3.org/2000/svg" viewBox="0 0 18 18" id="phone">
    <path fill-rule="evenodd" clip-rule="evenodd" d="M4.20375 2.25C3.88062 2.25 3.53668 2.37843 3.16989 2.73949L3.16421 2.74508L3.15841 2.75055C2.83616 3.05456 2.61631 3.38355 2.47917 3.73209L2.47762 3.73605C2.3354 4.09159 2.26125 4.48388 2.26125 4.905C2.26125 5.56768 2.41391 6.28579 2.74202 7.06537C3.07634 7.85214 3.5411 8.65796 4.12883 9.47528C4.72724 10.297 5.39874 11.0843 6.14409 11.8372C6.89709 12.5827 7.68504 13.2548 8.51543 13.8613C9.32945 14.454 10.1428 14.9195 10.9477 15.2625C11.7349 15.5979 12.4524 15.75 13.0988 15.75C13.5285 15.75 13.9176 15.6707 14.2728 15.5227L14.2768 15.521C14.6191 15.3807 14.9342 15.1584 15.2355 14.8264C15.4006 14.6442 15.5253 14.4517 15.6231 14.2447C15.704 14.0733 15.7388 13.905 15.7388 13.7475C15.7388 13.6562 15.7215 13.5675 15.678 13.4554C15.6582 13.4142 15.6209 13.3625 15.5293 13.2991L15.522 13.2941L13.046 11.5361C12.8892 11.4299 12.7655 11.3629 12.6648 11.3217C12.5775 11.286 12.5238 11.28 12.4913 11.28C12.4576 11.28 12.4184 11.2857 12.3487 11.3281L12.3276 11.341L12.3057 11.3524C12.2251 11.3945 12.1063 11.4807 11.9491 11.6378L11.9456 11.6413L11.377 12.2024C11.1618 12.4166 10.8772 12.5475 10.5413 12.5475C10.4157 12.5475 10.26 12.5333 10.0904 12.4697L10.0742 12.4637L10.0583 12.4569C10.0217 12.4412 9.98795 12.4256 9.96813 12.4165C9.94379 12.4053 9.93928 12.4035 9.94014 12.4038L9.90313 12.389L9.86783 12.3703C9.54738 12.2007 9.17899 11.9388 8.76679 11.59L8.76583 11.5892C8.34883 11.2352 7.94443 10.8537 7.5334 10.4503L7.52835 10.4453L7.52339 10.4403C7.11998 10.0291 6.74925 9.6196 6.40412 9.22078L6.39867 9.21449C6.05541 8.80881 5.78577 8.44162 5.61533 8.12914L5.58335 8.07052L5.56397 8.01237C5.56299 8.00996 5.56057 8.00404 5.55584 7.99286C5.55505 7.99099 5.55418 7.98894 5.55324 7.98673C5.54395 7.96482 5.52768 7.92649 5.5115 7.88334L5.4965 7.84334L5.48614 7.8019C5.45883 7.69265 5.44125 7.57855 5.44125 7.4475C5.44125 7.14833 5.54429 6.8572 5.77463 6.62351L6.34579 6.0298L6.35092 6.02467C6.49694 5.87865 6.59271 5.75185 6.64833 5.65346L6.6543 5.6429L6.6606 5.63254C6.70139 5.56553 6.70875 5.51903 6.70875 5.49C6.70875 5.47325 6.70266 5.41722 6.66439 5.32794L6.65949 5.31651C6.61861 5.21658 6.55293 5.09549 6.4451 4.94573L6.44205 4.94149L4.69706 2.48194C4.64452 2.40604 4.58054 2.35455 4.49696 2.31597L4.48666 2.31122C4.40685 2.27291 4.30873 2.25 4.20375 2.25ZM2.12335 1.66488C2.71536 1.08441 3.41941 0.75 4.20375 0.75C4.51695 0.75 4.83688 0.816391 5.13066 0.956401C5.4338 1.09729 5.71179 1.3139 5.92765 1.62414L7.66399 4.07148C7.82408 4.29412 7.95197 4.51552 8.04558 4.74285C8.14102 4.9672 8.20875 5.22404 8.20875 5.49C8.20875 5.81676 8.11358 6.12649 7.94833 6.40183C7.81069 6.64258 7.62575 6.87043 7.41694 7.07996L6.99519 7.51836C7.10538 7.69562 7.28269 7.93676 7.54113 8.24239C7.86874 8.62088 8.21551 9.00361 8.58917 9.38471C8.98614 9.7742 9.36005 10.126 9.73633 10.4455C10.0445 10.7062 10.2885 10.8804 10.471 10.989L10.8903 10.5753C11.1016 10.3642 11.3348 10.1711 11.59 10.0341C11.8598 9.87427 12.1587 9.78 12.4913 9.78C12.7437 9.78 12.99 9.83403 13.2327 9.93334C13.4607 10.0266 13.6801 10.1534 13.8955 10.2998L13.9018 10.3041L16.3871 12.0686C16.6768 12.27 16.9096 12.5295 17.0552 12.8604L17.0604 12.8721L17.0651 12.884C17.1675 13.14 17.2388 13.4226 17.2388 13.7475C17.2388 14.13 17.1535 14.5167 16.9794 14.8853C16.8222 15.2183 16.6169 15.5358 16.347 15.8336C15.914 16.3109 15.4194 16.6734 14.8477 16.9081C14.3034 17.1346 13.7182 17.25 13.0988 17.25C12.2151 17.25 11.2976 17.0421 10.3598 16.6425C9.43978 16.2505 8.52821 15.7261 7.63231 15.0738L7.63137 15.0731C6.73796 14.4206 5.89199 13.6986 5.08599 12.9004L5.08084 12.8953C4.28272 12.0894 3.56052 11.2432 2.91493 10.3564L2.91239 10.353C2.27099 9.46126 1.74635 8.55804 1.36095 7.65073L1.36002 7.64854C0.968441 6.71855 0.76125 5.80201 0.76125 4.905C0.76125 4.30684 0.866854 3.72482 1.08411 3.18092C1.30611 2.61755 1.65406 2.10906 2.12335 1.66488Z"></path>
  </symbol>
  <symbol xmlns="http://www.w3.org/2000/svg" viewBox="0 0 30 30" id="arrow-left">
    <path d="M15 25C20.51 25 25 20.51 25 15C25 9.49 20.51 5 15 5C9.49 5 5 9.49 5 15C5 20.51 9.49 25 15 25ZM12.21 14.47L15.74 10.94C15.89 10.79 16.08 10.72 16.27 10.72C16.46 10.72 16.65 10.79 16.8 10.94C17.09 11.23 17.09 11.71 16.8 12L13.8 15L16.8 18C17.09 18.29 17.09 18.77 16.8 19.06C16.51 19.35 16.03 19.35 15.74 19.06L12.21 15.53C11.91 15.24 11.91 14.76 12.21 14.47Z"></path>
  </symbol>
  <symbol xmlns="http://www.w3.org/2000/svg" viewBox="0 0 30 30" id="arrow-right">
    <path d="M15 5C9.49 5 5 9.49 5 15C5 20.51 9.49 25 15 25C20.51 25 25 20.51 25 15C25 9.49 20.51 5 15 5ZM17.79 15.53L14.26 19.06C14.11 19.21 13.92 19.28 13.73 19.28C13.54 19.28 13.35 19.21 13.2 19.06C12.91 18.77 12.91 18.29 13.2 18L16.2 15L13.2 12C12.91 11.71 12.91 11.23 13.2 10.94C13.49 10.65 13.97 10.65 14.26 10.94L17.79 14.47C18.09 14.76 18.09 15.24 17.79 15.53Z"></path>
  </symbol>
  <symbol xmlns="http://www.w3.org/2000/svg" viewBox="0 0 30 30" id="checked">
    <path d="M15 2.5C8.1125 2.5 2.5 8.1125 2.5 15C2.5 21.8875 8.1125 27.5 15 27.5C21.8875 27.5 27.5 21.8875 27.5 15C27.5 8.1125 21.8875 2.5 15 2.5ZM20.975 12.125L13.8875 19.2125C13.7125 19.3875 13.475 19.4875 13.225 19.4875C12.975 19.4875 12.7375 19.3875 12.5625 19.2125L9.025 15.675C8.6625 15.3125 8.6625 14.7125 9.025 14.35C9.3875 13.9875 9.9875 13.9875 10.35 14.35L13.225 17.225L19.65 10.8C20.0125 10.4375 20.6125 10.4375 20.975 10.8C21.3375 11.1625 21.3375 11.75 20.975 12.125Z"></path>
  </symbol>
  <symbol xmlns="http://www.w3.org/2000/svg" viewBox="0 0 18 18" id="clock">
    <path fill-rule="evenodd" clip-rule="evenodd" d="M9 3.91667C6.19421 3.91667 3.91667 6.19421 3.91667 9C3.91667 11.8058 6.19421 14.0833 9 14.0833C11.8058 14.0833 14.0833 11.8058 14.0833 9C14.0833 6.19421 11.8058 3.91667 9 3.91667ZM2.41667 9C2.41667 5.36579 5.36579 2.41667 9 2.41667C12.6342 2.41667 15.5833 5.36579 15.5833 9C15.5833 12.6342 12.6342 15.5833 9 15.5833C5.36579 15.5833 2.41667 12.6342 2.41667 9Z"></path>
    <path fill-rule="evenodd" clip-rule="evenodd" d="M8.78422 5.63078C9.19844 5.63078 9.53422 5.96656 9.53422 6.38078V8.77244C9.53422 8.79474 9.54702 8.87146 9.60343 8.97038C9.65987 9.06935 9.71939 9.11939 9.73824 9.13056L9.74023 9.13174L9.74023 9.13174L11.5486 10.2109C11.9043 10.4232 12.0205 10.8836 11.8083 11.2393C11.596 11.595 11.1356 11.7112 10.7799 11.499L8.97354 10.421C8.97312 10.4208 8.97271 10.4205 8.97229 10.4203C8.67675 10.2448 8.45086 9.97725 8.30043 9.71346C8.14975 9.44926 8.03422 9.11765 8.03422 8.77244V6.38078C8.03422 5.96656 8.37001 5.63078 8.78422 5.63078Z"></path>
  </symbol>
  <symbol xmlns="http://www.w3.org/2000/svg" viewBox="0 0 18 18" id="faq">
    <path d="M12.5417 2.22367H5.45833C3.33333 2.22367 1.91667 3.64033 1.91667 5.76533V10.0153C1.91667 12.1403 3.33333 13.557 5.45833 13.557V15.0658C5.45833 15.6324 6.08875 15.9724 6.55625 15.6537L9.70833 13.557H12.5417C14.6667 13.557 16.0833 12.1403 16.0833 10.0153V5.76533C16.0833 3.64033 14.6667 2.22367 12.5417 2.22367ZM9 10.8441C8.7025 10.8441 8.46875 10.6033 8.46875 10.3128C8.46875 10.0224 8.7025 9.78158 9 9.78158C9.2975 9.78158 9.53125 10.0224 9.53125 10.3128C9.53125 10.6033 9.2975 10.8441 9 10.8441ZM9.8925 7.9045C9.61625 8.08867 9.53125 8.20908 9.53125 8.40742V8.55617C9.53125 8.84658 9.29042 9.08742 9 9.08742C8.70958 9.08742 8.46875 8.84658 8.46875 8.55617V8.40742C8.46875 7.58575 9.07083 7.182 9.2975 7.02617C9.55958 6.84908 9.64458 6.72867 9.64458 6.5445C9.64458 6.19033 9.35417 5.89992 9 5.89992C8.64583 5.89992 8.35542 6.19033 8.35542 6.5445C8.35542 6.83492 8.11458 7.07575 7.82417 7.07575C7.53375 7.07575 7.29292 6.83492 7.29292 6.5445C7.29292 5.60242 8.05792 4.83742 9 4.83742C9.94208 4.83742 10.7071 5.60242 10.7071 6.5445C10.7071 7.352 10.1121 7.75575 9.8925 7.9045Z"></path>
  </symbol>
  <symbol xmlns="http://www.w3.org/2000/svg" viewBox="0 0 18 18" id="close">
    <path fill-rule="evenodd" clip-rule="evenodd" d="M2.28079 15.0087L15.0087 2.28079L15.7192 2.99128L2.99129 15.7192L2.28079 15.0087Z"></path>
    <path fill-rule="evenodd" clip-rule="evenodd" d="M15.0087 15.7192L2.28079 2.99128L2.99128 2.28079L15.7192 15.0087L15.0087 15.7192Z"></path>
  </symbol>
  <symbol xmlns="http://www.w3.org/2000/svg" viewBox="0 0 18 18" id="email">
    <path fill-rule="evenodd" clip-rule="evenodd" d="M3.04159 4.06522C2.58038 4.49348 2.25 5.20545 2.25 6.375V11.625C2.25 12.7946 2.58038 13.5065 3.04159 13.9348C3.51285 14.3724 4.23997 14.625 5.25 14.625H12.75C13.76 14.625 14.4871 14.3724 14.9584 13.9348C15.4196 13.5065 15.75 12.7946 15.75 11.625V6.375C15.75 5.20545 15.4196 4.49348 14.9584 4.06522C14.4871 3.62762 13.76 3.375 12.75 3.375H5.25C4.23997 3.375 3.51285 3.62762 3.04159 4.06522ZM2.02091 2.96603C2.86215 2.18488 4.01003 1.875 5.25 1.875H12.75C13.99 1.875 15.1379 2.18488 15.9791 2.96603C16.8304 3.75652 17.25 4.91955 17.25 6.375V11.625C17.25 13.0805 16.8304 14.2435 15.9791 15.034C15.1379 15.8151 13.99 16.125 12.75 16.125H5.25C4.01003 16.125 2.86215 15.8151 2.02091 15.034C1.16962 14.2435 0.75 13.0805 0.75 11.625V6.375C0.75 4.91955 1.16962 3.75652 2.02091 2.96603Z"></path>
    <path fill-rule="evenodd" clip-rule="evenodd" d="M13.336 6.28193C13.5945 6.60558 13.5417 7.07751 13.2181 7.33602L10.8696 9.21176C9.82374 10.0444 8.16876 10.0444 7.12287 9.21176L7.12102 9.21029L4.78102 7.33528C4.45778 7.07627 4.40571 6.60426 4.66472 6.28102C4.92373 5.95778 5.39574 5.9057 5.71898 6.16471L8.05796 8.0389C8.5571 8.4355 9.43613 8.43537 9.93502 8.03851C9.93514 8.03842 9.93491 8.0386 9.93502 8.03851L12.2819 6.16398C12.6056 5.90548 13.0775 5.95829 13.336 6.28193Z"></path>
  </symbol>
</svg>